<?xml version="1.0" standalone="yes"?>
<svg xmlns="http://www.w3.org/2000/svg" width="1061" height="938">
<path style="fill:#ffffff; stroke:none;" d="M0 0L0 938L1061 938L1061 0L0 0z"/>
<path style="fill:#01afd9; stroke:none;" d="M634 547C637.95 573.37 660.723 598.651 681 614.116C760.326 674.615 882.569 639.7 933.946 559C980.716 485.536 963.815 379.713 880 341.309C838.936 322.493 790.191 324.767 748 339.004C711.725 351.244 682.472 374.304 659.884 405C651.844 415.927 645.35 427.673 639.77 440C637.842 444.259 636.614 452.394 631.867 454.397C623.664 457.858 608.881 455 600 455L531 455C520.925 455 507.658 452.74 498.004 455.804C491.893 457.744 489.409 463.702 486.753 469C481.158 480.162 475.759 491.446 471.011 503C469.065 507.735 465.376 516.243 471.228 519.821C476.831 523.247 488.604 521 495 521L556 521C541.39 544.67 516.735 563.392 488 563.946C429.822 565.068 404.157 499.182 430.428 453C449.446 419.569 490.997 395.119 529 410.003C536.4 412.901 543.2 416.523 549 422.04C552.853 425.706 557.364 432.857 563.015 433.631C568.817 434.426 576.393 431.028 582 429.627C596.394 426.028 610.611 421.741 625 418.127C630.065 416.854 642.288 416.155 643.642 409.945C645.165 402.962 637.926 393.597 634.55 388C621.942 367.1 603.764 350.663 582 339.753C511.439 304.382 422.094 333.51 373.435 392C326.729 448.143 311.723 537.726 364.171 596C377.168 610.442 392.681 621.61 410 630.247C425.343 637.899 442.855 642.735 460 643.911C514.759 647.664 564.774 628.171 602.985 589C615.153 576.527 622.024 558.848 634 547M166 422L291 422C306.967 422 328.195 426.429 331 405L206 405C190.796 405 169.115 401.445 166 422z"/>
<path style="fill:#ffffff; stroke:none;" d="M801 405.424C758.421 411.084 726.555 437.424 716.888 480C706.51 525.712 746.314 569.447 793 563.714C835.589 558.483 869.508 524.384 874.714 482C879.734 441.12 843.318 399.8 801 405.424z"/>
<path style="fill:#01afd9; stroke:none;" d="M103 460L265 460C275.693 460 294.026 463.57 303.867 459.397C307.33 457.928 311.367 448.075 308.932 444.742C306.806 441.832 300.095 442.995 297 443C285.029 443.019 273.033 444 261 444L143 444C127.172 444 108.117 440.315 103 460M204 498L273 498C279.178 498 293.353 500.64 298.486 496.972C302.391 494.182 301 486.138 301 482L240 482C232.225 482 220.32 479.757 213.043 482.603C207.789 484.659 204.673 492.855 204 498z"/>
</svg>
